<?xml version="1.0" encoding="UTF-8"?>
<!DOCTYPE svg PUBLIC "-//W3C//DTD SVG 1.1//EN" "http://www.w3.org/Graphics/SVG/1.1/DTD/svg11.dtd">
<!-- Creator: CorelDRAW 2021 (64 Bit) -->
<svg xmlns="http://www.w3.org/2000/svg" xml:space="preserve" width="177px" height="177px" version="1.1" style="shape-rendering:geometricPrecision; text-rendering:geometricPrecision; image-rendering:optimizeQuality; fill-rule:evenodd; clip-rule:evenodd"
viewBox="0 0 6.79 6.79"
 xmlns:xlink="http://www.w3.org/1999/xlink"
 xmlns:xodm="http://www.corel.com/coreldraw/odm/2003">
 <defs>
  <style type="text/css">
   <![CDATA[
    .fil1 {fill:#FEFEFE}
    .fil0 {fill:#00A9B6;fill-rule:nonzero}
   ]]>
  </style>
 </defs>
 <g id="Camada_x0020_1">
  <metadata id="CorelCorpID_0Corel-Layer"/>
  <path class="fil0" d="M3.39 6.79c-1.87,0 -3.39,-1.53 -3.39,-3.4 0,-1.87 1.52,-3.39 3.39,-3.39 1.87,0 3.4,1.52 3.4,3.39 0,1.87 -1.53,3.4 -3.4,3.4z"/>
  <path class="fil1" d="M3.23 1.42c-1,0.11 -1.58,1.15 -1.22,2.03 0.13,0.3 0.64,1 0.86,1.31l0.36 0.52c0.08,0.12 0.2,0.12 0.29,0.05 0.03,-0.03 0.14,-0.21 0.17,-0.25l0.36 -0.51c0.26,-0.38 0.71,-0.94 0.8,-1.37 0.08,-0.37 0,-0.75 -0.18,-1.06 -0.15,-0.27 -0.41,-0.48 -0.69,-0.61 -0.21,-0.1 -0.51,-0.14 -0.75,-0.11zm0.09 0.86c-0.18,0.02 -0.34,0.12 -0.4,0.22 -0.38,0.53 0.06,1.07 0.55,1.01 0.31,-0.04 0.58,-0.33 0.54,-0.69 -0.05,-0.33 -0.35,-0.58 -0.69,-0.54z"/>
 </g>
</svg>
