<?xml version="1.0" encoding="UTF-8"?>
<!DOCTYPE svg PUBLIC "-//W3C//DTD SVG 1.1//EN" "http://www.w3.org/Graphics/SVG/1.1/DTD/svg11.dtd">
<!-- Creator: CorelDRAW 2021 (64 Bit) -->
<svg xmlns="http://www.w3.org/2000/svg" xml:space="preserve" width="177px" height="177px" version="1.1" style="shape-rendering:geometricPrecision; text-rendering:geometricPrecision; image-rendering:optimizeQuality; fill-rule:evenodd; clip-rule:evenodd"
viewBox="0 0 6.79 6.79"
 xmlns:xlink="http://www.w3.org/1999/xlink"
 xmlns:xodm="http://www.corel.com/coreldraw/odm/2003">
 <defs>
  <style type="text/css">
   <![CDATA[
    .fil1 {fill:#FEFEFE}
    .fil0 {fill:#00A9B6;fill-rule:nonzero}
   ]]>
  </style>
 </defs>
 <g id="Camada_x0020_1">
  <metadata id="CorelCorpID_0Corel-Layer"/>
  <path class="fil0" d="M3.39 6.79c-1.87,0 -3.39,-1.53 -3.39,-3.4 0,-1.87 1.52,-3.39 3.39,-3.39 1.87,0 3.4,1.52 3.4,3.39 0,1.87 -1.53,3.4 -3.4,3.4z"/>
  <path class="fil1" d="M4.81 4c-0.08,-0.03 -0.46,-0.22 -0.53,-0.25 -0.08,-0.02 -0.12,-0.04 -0.18,0.04 -0.05,0.08 -0.2,0.25 -0.24,0.3 -0.05,0.05 -0.09,0.06 -0.17,0.02 -0.08,-0.04 -0.33,-0.12 -0.62,-0.38 -0.23,-0.21 -0.39,-0.45 -0.43,-0.53 -0.04,-0.08 -0.01,-0.12 0.03,-0.16 0.04,-0.03 0.08,-0.09 0.12,-0.13 0.01,-0.01 0.02,-0.03 0.03,-0.04 0.02,-0.03 0.03,-0.06 0.04,-0.09 0.03,-0.05 0.02,-0.1 0,-0.13 -0.02,-0.04 -0.17,-0.42 -0.24,-0.57 -0.06,-0.16 -0.13,-0.13 -0.17,-0.13 -0.05,0 -0.1,-0.01 -0.15,-0.01 -0.06,0 -0.14,0.02 -0.21,0.1 -0.07,0.07 -0.27,0.26 -0.27,0.64 0,0.09 0.02,0.18 0.04,0.26 0.08,0.27 0.25,0.49 0.28,0.53 0.03,0.05 0.53,0.85 1.32,1.16 0.79,0.3 0.79,0.2 0.93,0.19 0.14,-0.01 0.46,-0.18 0.52,-0.37 0.06,-0.17 0.06,-0.33 0.04,-0.36 -0.01,-0.03 -0.07,-0.05 -0.14,-0.09l0 0z"/>
 </g>
</svg>
