<?xml version="1.0" encoding="UTF-8"?>
<!DOCTYPE svg PUBLIC "-//W3C//DTD SVG 1.1//EN" "http://www.w3.org/Graphics/SVG/1.1/DTD/svg11.dtd">
<!-- Creator: CorelDRAW 2021 (64 Bit) -->
<svg xmlns="http://www.w3.org/2000/svg" xml:space="preserve" width="625px" height="625px" version="1.1" style="shape-rendering:geometricPrecision; text-rendering:geometricPrecision; image-rendering:optimizeQuality; fill-rule:evenodd; clip-rule:evenodd"
viewBox="0 0 54.1 54.1"
 xmlns:xlink="http://www.w3.org/1999/xlink"
 xmlns:xodm="http://www.corel.com/coreldraw/odm/2003">
 <defs>
  <style type="text/css">
   <![CDATA[
    .fil1 {fill:#FEFEFE}
    .fil0 {fill:#619CD3;fill-rule:nonzero}
   ]]>
  </style>
 </defs>
 <g id="Camada_x0020_1">
  <metadata id="CorelCorpID_0Corel-Layer"/>
  <g id="_2310740405760">
   <path class="fil0" d="M27.35 54.1c-15.46,0 -27.35,-11.89 -27.35,-26.75 0,-15.46 11.89,-27.35 27.35,-27.35 14.86,0 26.75,11.89 26.75,27.35 0,14.86 -11.89,26.75 -26.75,26.75z"/>
   <path class="fil1" d="M25.56 11.3c-7.73,1.18 -12.48,8.91 -9.51,16.05 1.19,2.37 5.35,8.32 7.13,10.7l2.38 4.16c0.6,0.59 1.79,0.59 2.38,0.59 0.59,-0.59 1.19,-1.78 1.78,-2.38l2.38 -4.16c2.38,-2.97 5.95,-7.13 6.54,-10.7 0.6,-2.97 0,-5.94 -1.19,-8.32 -1.19,-2.38 -3.56,-4.16 -5.94,-4.76 -1.19,-1.18 -3.57,-1.18 -5.95,-1.18l0 0zm1.19 7.13c-1.78,0 -2.97,0.59 -3.57,1.78 -2.97,4.16 0.6,8.32 4.76,7.73 2.38,0 4.16,-2.38 4.16,-5.35 -0.59,-2.97 -2.97,-4.76 -5.35,-4.16l0 0z"/>
  </g>
 </g>
</svg>
