<?xml version="1.0" encoding="UTF-8"?>
<!DOCTYPE svg PUBLIC "-//W3C//DTD SVG 1.1//EN" "http://www.w3.org/Graphics/SVG/1.1/DTD/svg11.dtd">
<!-- Creator: CorelDRAW 2021 (64 Bit) -->
<svg xmlns="http://www.w3.org/2000/svg" xml:space="preserve" width="625px" height="625px" version="1.1" style="shape-rendering:geometricPrecision; text-rendering:geometricPrecision; image-rendering:optimizeQuality; fill-rule:evenodd; clip-rule:evenodd"
viewBox="0 0 60.73 60.73"
 xmlns:xlink="http://www.w3.org/1999/xlink"
 xmlns:xodm="http://www.corel.com/coreldraw/odm/2003">
 <defs>
  <style type="text/css">
   <![CDATA[
    .fil1 {fill:#FEFEFE}
    .fil0 {fill:#619CD3;fill-rule:nonzero}
   ]]>
  </style>
 </defs>
 <g id="Camada_x0020_1">
  <metadata id="CorelCorpID_0Corel-Layer"/>
  <g id="_2310735674896">
   <path class="fil0" d="M30.37 60.73c-16.8,0 -30.37,-13.56 -30.37,-30.36 0,-16.8 13.57,-30.37 30.37,-30.37 16.8,0 30.36,13.57 30.36,30.37 0,16.8 -13.56,30.36 -30.36,30.36z"/>
   <path class="fil1" d="M29.72 43.94c-2.58,0 -5.81,-0.65 -7.75,-2.59l-5.82 1.94 1.94 -5.17c-1.94,-2.58 -3.23,-5.81 -3.23,-9.04 0,-0.65 0,-0.65 0,-1.3 0.65,-7.75 7.11,-13.57 14.86,-13.57 8.4,0 14.86,6.47 14.86,13.57 0.65,0.65 0.65,1.3 0.65,1.3 0,8.39 -7.11,14.86 -15.51,14.86l0 0zm8.4 -10.99c-0.65,-0.64 -2.58,-1.29 -3.23,-1.94 0,0 -0.65,0 -0.65,0.65 -0.64,0.65 -1.29,1.29 -1.29,1.29 -0.64,0.65 -0.64,0.65 -1.29,0.65 0,-0.65 -1.94,-0.65 -3.23,-2.59 -1.29,-0.64 -2.59,-2.58 -2.59,-2.58 0,-0.65 0,-0.65 0,-1.29 0.65,0 0.65,0 0.65,-0.65 0,0 0.65,0 0.65,0 0,0 0,-0.65 0,-0.65 0,0 0,-0.64 0,-0.64 0,0 -0.65,-2.59 -1.3,-3.23 -0.64,-0.65 -0.64,-0.65 -1.29,-0.65 0,0 0,0 -0.64,0 0,0 -0.65,0 -1.3,0.65 0,0 -1.29,1.29 -1.29,3.23 0,0.64 0,1.29 0,1.29 0.65,1.94 1.29,3.23 1.94,3.23 0,0.65 2.58,4.52 7.11,6.46 4.52,1.94 4.52,1.29 5.17,1.29 1.29,0 2.58,-1.29 3.23,-1.93 0,-1.3 0,-1.94 0,-2.59 0,0 0,0 -0.65,0l0 0 0 0 0 0zm9.69 -4.52c0,-9.05 -8.4,-16.8 -18.09,-16.8 -9.04,0 -17.44,7.11 -17.44,16.8 0,0 0,0.65 0,0.65 0,3.23 0.64,6.46 2.58,9.04l-3.23 9.69 9.69 -3.23c2.59,1.29 5.82,2.59 8.4,2.59 10.34,0 18.09,-8.4 18.09,-18.09 0,0 0,0 0,-0.65l0 0 0 0z"/>
  </g>
 </g>
</svg>
