<?xml version="1.0" encoding="UTF-8"?>
<!DOCTYPE svg PUBLIC "-//W3C//DTD SVG 1.1//EN" "http://www.w3.org/Graphics/SVG/1.1/DTD/svg11.dtd">
<!-- Creator: CorelDRAW 2021 (64 Bit) -->
<svg xmlns="http://www.w3.org/2000/svg" xml:space="preserve" width="175px" height="175px" version="1.1" style="shape-rendering:geometricPrecision; text-rendering:geometricPrecision; image-rendering:optimizeQuality; fill-rule:evenodd; clip-rule:evenodd"
viewBox="0 0 10.79 10.79"
 xmlns:xlink="http://www.w3.org/1999/xlink"
 xmlns:xodm="http://www.corel.com/coreldraw/odm/2003">
 <defs>
  <style type="text/css">
   <![CDATA[
    .fil1 {fill:#FEFEFE}
    .fil0 {fill:#00A9B6;fill-rule:nonzero}
   ]]>
  </style>
 </defs>
 <g id="Camada_x0020_1">
  <metadata id="CorelCorpID_0Corel-Layer"/>
  <path class="fil0" d="M5.39 10.79c-2.97,0 -5.39,-2.42 -5.39,-5.4 0,-2.97 2.42,-5.39 5.39,-5.39 2.98,0 5.4,2.42 5.4,5.39 0,2.98 -2.42,5.4 -5.4,5.4z"/>
  <path class="fil1" d="M5.81 4.29l0 -0.44c0,-0.21 0.14,-0.26 0.24,-0.26 0.1,0 0.61,0 0.61,0l0 -0.94 -0.85 0c-0.94,0 -1.15,0.69 -1.15,1.15l0 0.49 -0.55 0 0 0.67 0 0.43 0.55 0c0,1.25 0,2.75 0,2.75l1.1 0c0,0 0,-1.52 0,-2.75l0.82 0 0.03 -0.43 0.07 -0.67 -0.87 0z"/>
 </g>
</svg>
