<?xml version="1.0" encoding="UTF-8"?>
<!DOCTYPE svg PUBLIC "-//W3C//DTD SVG 1.1//EN" "http://www.w3.org/Graphics/SVG/1.1/DTD/svg11.dtd">
<!-- Creator: CorelDRAW 2021 (64 Bit) -->
<svg xmlns="http://www.w3.org/2000/svg" xml:space="preserve" width="200px" height="200px" version="1.1" style="shape-rendering:geometricPrecision; text-rendering:geometricPrecision; image-rendering:optimizeQuality; fill-rule:evenodd; clip-rule:evenodd"
viewBox="0 0 0.94 0.94"
 xmlns:xlink="http://www.w3.org/1999/xlink"
 xmlns:xodm="http://www.corel.com/coreldraw/odm/2003">
 <defs>
  <style type="text/css">
   <![CDATA[
    .fil1 {fill:#FEFEFE}
    .fil0 {fill:#EC268F;fill-rule:nonzero}
   ]]>
  </style>
 </defs>
 <g id="Camada_x0020_1">
  <metadata id="CorelCorpID_0Corel-Layer"/>
  <path class="fil0" d="M0.47 0.94c-0.26,0 -0.47,-0.21 -0.47,-0.47 0,-0.26 0.21,-0.47 0.47,-0.47 0.26,0 0.47,0.21 0.47,0.47 0,0.26 -0.21,0.47 -0.47,0.47z"/>
  <path class="fil1" d="M0.46 0.68c-0.04,0 -0.09,-0.01 -0.12,-0.04l-0.09 0.03 0.03 -0.08c-0.03,-0.04 -0.05,-0.09 -0.05,-0.14 0,-0.01 0,-0.01 0,-0.02 0.01,-0.12 0.11,-0.21 0.23,-0.21 0.13,0 0.23,0.1 0.23,0.21 0.01,0.01 0.01,0.02 0.01,0.02 0,0.13 -0.11,0.23 -0.24,0.23l0 0zm0.13 -0.17c-0.01,-0.01 -0.04,-0.02 -0.05,-0.03 0,0 -0.01,0 -0.01,0.01 -0.01,0.01 -0.02,0.02 -0.02,0.02 -0.01,0.01 -0.01,0.01 -0.02,0.01 0,-0.01 -0.03,-0.01 -0.05,-0.04 -0.02,-0.01 -0.04,-0.04 -0.04,-0.04 0,-0.01 0,-0.01 0,-0.02 0.01,0 0.01,0 0.01,-0.01 0,0 0.01,0 0.01,0 0,0 0,-0.01 0,-0.01 0,0 0,-0.01 0,-0.01 0,0 -0.01,-0.04 -0.02,-0.05 -0.01,-0.01 -0.01,-0.01 -0.02,-0.01 0,0 0,0 -0.01,0 0,0 -0.01,0 -0.02,0.01 0,0 -0.02,0.02 -0.02,0.05 0,0.01 0,0.02 0,0.02 0.01,0.03 0.02,0.05 0.03,0.05 0,0.01 0.04,0.07 0.11,0.1 0.07,0.03 0.07,0.02 0.08,0.02 0.02,0 0.04,-0.02 0.05,-0.03 0,-0.02 0,-0.03 0,-0.04 0,0 0,0 -0.01,0l0 0 0 0zm0.15 -0.07c0,-0.14 -0.13,-0.26 -0.28,-0.26 -0.14,0 -0.27,0.11 -0.27,0.26 0,0 0,0.01 0,0.01 0,0.05 0.01,0.1 0.04,0.14l-0.05 0.15 0.15 -0.05c0.04,0.02 0.09,0.04 0.13,0.04 0.16,0 0.28,-0.13 0.28,-0.28 0,0 0,0 0,-0.01l0 0 0 0z"/>
 </g>
</svg>
