<?xml version="1.0" encoding="UTF-8"?>
<!DOCTYPE svg PUBLIC "-//W3C//DTD SVG 1.1//EN" "http://www.w3.org/Graphics/SVG/1.1/DTD/svg11.dtd">
<!-- Creator: CorelDRAW 2021 (64 Bit) -->
<svg xmlns="http://www.w3.org/2000/svg" xml:space="preserve" width="200px" height="200px" version="1.1" style="shape-rendering:geometricPrecision; text-rendering:geometricPrecision; image-rendering:optimizeQuality; fill-rule:evenodd; clip-rule:evenodd"
viewBox="0 0 0.93 0.93"
 xmlns:xlink="http://www.w3.org/1999/xlink"
 xmlns:xodm="http://www.corel.com/coreldraw/odm/2003">
 <defs>
  <style type="text/css">
   <![CDATA[
    .fil1 {fill:#FEFEFE}
    .fil0 {fill:#EC268F;fill-rule:nonzero}
   ]]>
  </style>
 </defs>
 <g id="Camada_x0020_1">
  <metadata id="CorelCorpID_0Corel-Layer"/>
  <path class="fil0" d="M0.46 0.93c-0.25,0 -0.46,-0.21 -0.46,-0.47 0,-0.25 0.21,-0.46 0.46,-0.46 0.26,0 0.47,0.21 0.47,0.46 0,0.26 -0.21,0.47 -0.47,0.47z"/>
  <path class="fil1" d="M0.66 0.55c-0.01,-0.01 -0.07,-0.03 -0.08,-0.04 -0.01,0 -0.01,0 -0.02,0.01 -0.01,0.01 -0.03,0.03 -0.03,0.04 -0.01,0.01 -0.02,0.01 -0.03,0 -0.01,0 -0.04,-0.02 -0.08,-0.05 -0.03,-0.03 -0.05,-0.06 -0.06,-0.07 0,-0.01 0,-0.02 0,-0.02 0.01,-0.01 0.02,-0.02 0.02,-0.02 0,0 0,-0.01 0.01,-0.01 0,0 0,-0.01 0,-0.01 0,-0.01 0,-0.01 0,-0.02 0,0 -0.02,-0.06 -0.03,-0.08 -0.01,-0.02 -0.02,-0.01 -0.03,-0.01 0,0 -0.01,-0.01 -0.02,-0.01 0,0 -0.02,0.01 -0.02,0.02 -0.01,0.01 -0.04,0.03 -0.04,0.09 0,0.01 0,0.02 0,0.03 0.01,0.04 0.04,0.07 0.04,0.07 0.01,0.01 0.07,0.12 0.18,0.16 0.11,0.04 0.11,0.03 0.13,0.03 0.02,0 0.06,-0.03 0.07,-0.05 0.01,-0.03 0.01,-0.05 0.01,-0.05 -0.01,-0.01 -0.01,-0.01 -0.02,-0.01l0 0 0 0z"/>
 </g>
</svg>
