<?xml version="1.0" encoding="UTF-8"?>
<!DOCTYPE svg PUBLIC "-//W3C//DTD SVG 1.1//EN" "http://www.w3.org/Graphics/SVG/1.1/DTD/svg11.dtd">
<!-- Creator: CorelDRAW 2021 (64 Bit) -->
<svg xmlns="http://www.w3.org/2000/svg" xml:space="preserve" width="200px" height="200px" version="1.1" style="shape-rendering:geometricPrecision; text-rendering:geometricPrecision; image-rendering:optimizeQuality; fill-rule:evenodd; clip-rule:evenodd"
viewBox="0 0 0.9 0.9"
 xmlns:xlink="http://www.w3.org/1999/xlink"
 xmlns:xodm="http://www.corel.com/coreldraw/odm/2003">
 <defs>
  <style type="text/css">
   <![CDATA[
    .fil1 {fill:#FEFEFE}
    .fil0 {fill:#EC268F;fill-rule:nonzero}
   ]]>
  </style>
 </defs>
 <g id="Camada_x0020_1">
  <metadata id="CorelCorpID_0Corel-Layer"/>
  <path class="fil0" d="M0.45 0.9c-0.25,0 -0.45,-0.2 -0.45,-0.45 0,-0.25 0.2,-0.45 0.45,-0.45 0.25,0 0.45,0.2 0.45,0.45 0,0.25 -0.2,0.45 -0.45,0.45z"/>
  <path class="fil1" d="M0.48 0.36l0 -0.04c0,-0.02 0.02,-0.02 0.03,-0.02 0,0 0.05,0 0.05,0l0 -0.08 -0.08 0c-0.07,0 -0.09,0.06 -0.09,0.1l0 0.04 -0.05 0 0 0.05 0 0.04 0.05 0c0,0.1 0,0.23 0,0.23l0.09 0c0,0 0,-0.13 0,-0.23l0.07 0 0 -0.04 0.01 -0.05 -0.08 0 0 0z"/>
 </g>
</svg>
