<?xml version="1.0" encoding="UTF-8"?>
<!DOCTYPE svg PUBLIC "-//W3C//DTD SVG 1.1//EN" "http://www.w3.org/Graphics/SVG/1.1/DTD/svg11.dtd">
<!-- Creator: CorelDRAW 2021 (64 Bit) -->
<svg xmlns="http://www.w3.org/2000/svg" xml:space="preserve" width="625px" height="625px" version="1.1" style="shape-rendering:geometricPrecision; text-rendering:geometricPrecision; image-rendering:optimizeQuality; fill-rule:evenodd; clip-rule:evenodd"
viewBox="0 0 120.47 120.47"
 xmlns:xlink="http://www.w3.org/1999/xlink"
 xmlns:xodm="http://www.corel.com/coreldraw/odm/2003">
 <defs>
  <style type="text/css">
   <![CDATA[
    .fil1 {fill:#FEFEFE}
    .fil0 {fill:#619CD3;fill-rule:nonzero}
   ]]>
  </style>
 </defs>
 <g id="Camada_x0020_1">
  <metadata id="CorelCorpID_0Corel-Layer"/>
  <g id="_2310754518464">
   <path class="fil0" d="M60.23 120.47c-33.46,0 -60.23,-26.77 -60.23,-60.24 0,-33.46 26.77,-60.23 60.23,-60.23 33.47,0 60.24,26.77 60.24,60.23 0,33.47 -26.77,60.24 -60.24,60.24z"/>
   <path class="fil1" d="M64.25 48.19l0 -5.36c0,-2.67 2.68,-2.67 4.01,-2.67 0,0 6.7,0 6.7,0l0 -10.71 -10.71 0c-9.37,0 -12.05,8.03 -12.05,13.38l0 5.36 -6.69 0 0 6.69 0 5.35 6.69 0c0,13.39 0,30.79 0,30.79l12.05 0c0,0 0,-17.4 0,-30.79l9.37 0 0 -5.35 1.34 -6.69 -10.71 0 0 0z"/>
  </g>
 </g>
</svg>
