<?xml version="1.0" encoding="UTF-8"?>
<!DOCTYPE svg PUBLIC "-//W3C//DTD SVG 1.1//EN" "http://www.w3.org/Graphics/SVG/1.1/DTD/svg11.dtd">
<!-- Creator: CorelDRAW 2021 (64 Bit) -->
<svg xmlns="http://www.w3.org/2000/svg" xml:space="preserve" width="177px" height="177px" version="1.1" style="shape-rendering:geometricPrecision; text-rendering:geometricPrecision; image-rendering:optimizeQuality; fill-rule:evenodd; clip-rule:evenodd"
viewBox="0 0 80.19 80.19"
 xmlns:xlink="http://www.w3.org/1999/xlink"
 xmlns:xodm="http://www.corel.com/coreldraw/odm/2003">
 <defs>
  <style type="text/css">
   <![CDATA[
    .fil1 {fill:#FEFEFE}
    .fil0 {fill:#00A9B6;fill-rule:nonzero}
   ]]>
  </style>
 </defs>
 <g id="Camada_x0020_1">
  <metadata id="CorelCorpID_0Corel-Layer"/>
  <g id="_1944128706192">
   <path class="fil0" d="M40.09 80.19c-22.11,0 -40.09,-17.99 -40.09,-40.09 0,-22.11 17.98,-40.1 40.09,-40.1 22.11,0 40.1,17.99 40.1,40.1 0,22.1 -17.99,40.09 -40.1,40.09z"/>
   <path class="fil1" d="M39.6 58.23c-4,0 -7.75,-1.19 -10.87,-3.25l-7.59 2.42 2.45 -7.31c-2.37,-3.22 -3.77,-7.23 -3.77,-11.52 0,-0.65 0.02,-1.25 0.1,-1.9 0.99,-9.95 9.44,-17.73 19.68,-17.73 10.4,0 18.96,7.98 19.74,18.1 0.05,0.52 0.05,1.04 0.05,1.53 0,10.82 -8.87,19.66 -19.79,19.66l0 0zm10.79 -14.92c-0.59,-0.29 -3.4,-1.7 -3.92,-1.9 -0.58,-0.16 -0.94,-0.29 -1.33,0.31 -0.36,0.57 -1.48,1.85 -1.82,2.21 -0.34,0.42 -0.68,0.44 -1.22,0.18 -0.62,-0.28 -2.47,-0.88 -4.65,-2.86 -1.75,-1.53 -2.92,-3.38 -3.23,-3.93 -0.31,-0.62 -0.05,-0.88 0.23,-1.22 0.29,-0.23 0.6,-0.62 0.89,-0.99 0.08,-0.07 0.15,-0.15 0.21,-0.26 0.15,-0.23 0.23,-0.41 0.36,-0.67 0.21,-0.39 0.13,-0.73 -0.05,-0.99 -0.11,-0.29 -1.27,-3.15 -1.77,-4.26 -0.47,-1.17 -0.96,-0.97 -1.27,-0.97 -0.37,0 -0.73,-0.05 -1.12,-0.05 -0.42,0 -1.02,0.13 -1.53,0.73 -0.58,0.57 -2.06,1.92 -2.06,4.78 0,0.65 0.13,1.33 0.34,1.93 0.54,2.05 1.84,3.69 2.03,3.98 0.28,0.39 3.97,6.34 9.85,8.63 5.9,2.29 5.9,1.51 6.94,1.43 1.04,-0.08 3.41,-1.35 3.9,-2.73 0.47,-1.33 0.47,-2.47 0.32,-2.73 -0.13,-0.18 -0.52,-0.36 -1.1,-0.62l0 0zm12.74 -5.31c-0.33,-12.64 -10.73,-22.75 -23.53,-22.75 -12.63,0 -22.96,9.85 -23.48,22.31 -0.05,0.31 -0.05,0.67 -0.05,1.01 0,4.4 1.25,8.53 3.38,12.07l-4.26 12.53 13.05 -4.13c3.38,1.84 7.25,2.88 11.36,2.88 13.01,0 23.56,-10.42 23.56,-23.35 0,-0.2 -0.03,-0.36 -0.03,-0.57l0 0z"/>
  </g>
 </g>
</svg>
