<?xml version="1.0" encoding="UTF-8"?>
<!DOCTYPE svg PUBLIC "-//W3C//DTD SVG 1.1//EN" "http://www.w3.org/Graphics/SVG/1.1/DTD/svg11.dtd">
<!-- Creator: CorelDRAW 2021 (64 Bit) -->
<svg xmlns="http://www.w3.org/2000/svg" xml:space="preserve" width="625px" height="625px" version="1.1" style="shape-rendering:geometricPrecision; text-rendering:geometricPrecision; image-rendering:optimizeQuality; fill-rule:evenodd; clip-rule:evenodd"
viewBox="0 0 6791.98 6791.98"
 xmlns:xlink="http://www.w3.org/1999/xlink"
 xmlns:xodm="http://www.corel.com/coreldraw/odm/2003">
 <defs>
  <style type="text/css">
   <![CDATA[
    .fil1 {fill:#FEFEFE}
    .fil0 {fill:#619CD3;fill-rule:nonzero}
   ]]>
  </style>
 </defs>
 <g id="Camada_x0020_1">
  <metadata id="CorelCorpID_0Corel-Layer"/>
  <g id="_2310927032736">
   <path class="fil0" d="M3359.47 6791.98c-1825.8,0 -3359.47,-1533.67 -3359.47,-3432.51 0,-1825.8 1533.67,-3359.47 3359.47,-3359.47 1898.84,0 3432.51,1533.67 3432.51,3359.47 0,1898.84 -1533.67,3432.51 -3432.51,3432.51z"/>
   <path class="fil1" d="M4820.11 4016.77c-73.03,-73.03 -511.22,-219.1 -584.26,-292.13 -73.03,0 -73.03,0 -146.06,73.03 -73.03,73.03 -219.1,219.1 -219.1,292.13 -73.03,73.03 -146.07,73.03 -219.1,0 -73.03,0 -292.13,-146.06 -584.26,-365.16 -219.1,-219.1 -365.16,-438.2 -438.19,-511.23 0,-73.03 0,-146.07 0,-146.07 73.03,-73.03 146.06,-146.06 146.06,-146.06 0,0 0,-73.03 73.03,-73.03 0,0 0,-73.04 0,-73.04 0,-73.03 0,-73.03 0,-146.06 0,0 -146.06,-438.2 -219.09,-584.26 -73.04,-146.07 -146.07,-73.04 -219.1,-73.04 0,0 -73.03,-73.03 -146.07,-73.03 0,0 -146.06,73.03 -146.06,146.07 -73.04,73.03 -292.13,219.1 -292.13,657.29 0,73.03 0,146.07 0,219.1 73.03,292.13 292.13,511.23 292.13,511.23 73.03,73.03 511.23,876.39 1314.57,1168.51 803.36,292.13 803.36,219.09 949.43,219.09 146.06,0 438.19,-219.09 511.22,-365.16 73.04,-219.1 73.04,-365.16 73.04,-365.16 -73.04,-73.03 -73.04,-73.03 -146.07,-73.03l0 0 0 0 0.01 0.01z"/>
  </g>
 </g>
</svg>
