<?xml version="1.0" encoding="UTF-8"?>
<!DOCTYPE svg PUBLIC "-//W3C//DTD SVG 1.1//EN" "http://www.w3.org/Graphics/SVG/1.1/DTD/svg11.dtd">
<!-- Creator: CorelDRAW 2021 (64 Bit) -->
<svg xmlns="http://www.w3.org/2000/svg" xml:space="preserve" width="625px" height="625px" version="1.1" style="shape-rendering:geometricPrecision; text-rendering:geometricPrecision; image-rendering:optimizeQuality; fill-rule:evenodd; clip-rule:evenodd"
viewBox="0 0 107.64 107.64"
 xmlns:xlink="http://www.w3.org/1999/xlink"
 xmlns:xodm="http://www.corel.com/coreldraw/odm/2003">
 <defs>
  <style type="text/css">
   <![CDATA[
    .fil1 {fill:#FEFEFE}
    .fil0 {fill:#619CD3;fill-rule:nonzero}
   ]]>
  </style>
 </defs>
 <g id="Camada_x0020_1">
  <metadata id="CorelCorpID_0Corel-Layer"/>
  <g id="_2310802917424">
   <path class="fil0" d="M53.82 107.64c-29.25,0 -53.82,-24.57 -53.82,-53.82 0,-29.25 24.57,-53.82 53.82,-53.82 29.25,0 53.82,24.57 53.82,53.82 0,29.25 -24.57,53.82 -53.82,53.82z"/>
   <path class="fil1" d="M70.2 53.82c0,-9.36 -7.02,-17.55 -16.38,-17.55 -9.36,0 -17.55,8.19 -17.55,17.55 0,9.36 8.19,16.38 17.55,16.38 9.36,0 16.38,-7.02 16.38,-16.38l0 0zm0 -19.89c-1.17,0 -2.34,1.17 -2.34,3.51 0,1.17 1.17,2.34 2.34,2.34 2.34,0 3.51,-1.17 3.51,-2.34 0,-2.34 -1.17,-3.51 -3.51,-3.51l0 0zm-30.42 -3.51l28.08 0c4.68,0 9.36,4.68 9.36,9.36l0 28.08c0,4.68 -4.68,9.36 -9.36,9.36l-28.08 0c-4.68,0 -9.36,-4.68 -9.36,-9.36l0 -28.08c0,-4.68 4.68,-9.36 9.36,-9.36l0 0zm28.08 -3.51l-28.08 0c-7.02,0 -12.87,5.85 -12.87,12.87l0 28.08c0,7.02 5.85,11.7 12.87,11.7l28.08 0c7.02,0 11.7,-4.68 11.7,-11.7l0 -28.08c0,-7.02 -4.68,-12.87 -11.7,-12.87l0 0zm-28.08 26.91c0,-8.19 5.85,-14.04 14.04,-14.04 7.02,0 12.87,5.85 12.87,14.04 0,7.02 -5.85,12.87 -12.87,12.87 -8.19,0 -14.04,-5.85 -14.04,-12.87l0 0z"/>
  </g>
 </g>
</svg>
