<?xml version="1.0" encoding="UTF-8"?>
<!DOCTYPE svg PUBLIC "-//W3C//DTD SVG 1.1//EN" "http://www.w3.org/Graphics/SVG/1.1/DTD/svg11.dtd">
<!-- Creator: CorelDRAW 2021 (64 Bit) -->
<svg xmlns="http://www.w3.org/2000/svg" xml:space="preserve" width="200px" height="200px" version="1.1" style="shape-rendering:geometricPrecision; text-rendering:geometricPrecision; image-rendering:optimizeQuality; fill-rule:evenodd; clip-rule:evenodd"
viewBox="0 0 0.91 0.91"
 xmlns:xlink="http://www.w3.org/1999/xlink"
 xmlns:xodm="http://www.corel.com/coreldraw/odm/2003">
 <defs>
  <style type="text/css">
   <![CDATA[
    .fil1 {fill:#FEFEFE}
    .fil0 {fill:#EC268F;fill-rule:nonzero}
   ]]>
  </style>
 </defs>
 <g id="Camada_x0020_1">
  <metadata id="CorelCorpID_0Corel-Layer"/>
  <path class="fil0" d="M0.46 0.91c-0.26,0 -0.46,-0.2 -0.46,-0.45 0,-0.26 0.2,-0.46 0.46,-0.46 0.25,0 0.45,0.2 0.45,0.46 0,0.25 -0.2,0.45 -0.45,0.45z"/>
  <path class="fil1" d="M0.43 0.19c-0.13,0.02 -0.21,0.15 -0.16,0.27 0.02,0.04 0.09,0.14 0.12,0.18l0.04 0.07c0.01,0.01 0.03,0.01 0.04,0.01 0.01,-0.01 0.02,-0.03 0.03,-0.04l0.04 -0.07c0.04,-0.05 0.1,-0.12 0.11,-0.18 0.01,-0.05 0,-0.1 -0.02,-0.14 -0.02,-0.04 -0.06,-0.07 -0.1,-0.08 -0.02,-0.02 -0.06,-0.02 -0.1,-0.02l0 0zm0.02 0.12c-0.03,0 -0.05,0.01 -0.06,0.03 -0.05,0.07 0.01,0.14 0.08,0.13 0.04,0 0.07,-0.04 0.07,-0.09 -0.01,-0.05 -0.05,-0.08 -0.09,-0.07l0 0z"/>
 </g>
</svg>
