<?xml version="1.0" encoding="UTF-8"?>
<!DOCTYPE svg PUBLIC "-//W3C//DTD SVG 1.1//EN" "http://www.w3.org/Graphics/SVG/1.1/DTD/svg11.dtd">
<!-- Creator: CorelDRAW 2021 (64 Bit) -->
<svg xmlns="http://www.w3.org/2000/svg" xml:space="preserve" width="5584px" height="1397px" version="1.1" style="shape-rendering:geometricPrecision; text-rendering:geometricPrecision; image-rendering:optimizeQuality; fill-rule:evenodd; clip-rule:evenodd"
viewBox="0 0 41926.23 10486.21"
 xmlns:xlink="http://www.w3.org/1999/xlink"
 xmlns:xodm="http://www.corel.com/coreldraw/odm/2003">
 <defs>
  <style type="text/css">
   <![CDATA[
    .fil0 {fill:#ffffff}
   ]]>
  </style>
 </defs>
 <g id="Camada_x0020_1">
  <metadata id="CorelCorpID_0Corel-Layer"/>
  <g id="_2525522814448">
   <path class="fil0" d="M467.71 6236.21c-174.6,-567.22 -219.7,-695.57 7.79,-1304.51 352.24,-942.93 1550.95,-1998.7 2363.29,-2562.53 505.8,-351.06 3654.46,-2442.25 4465.79,-1997.25 287.4,304.73 -880.96,1739.6 -1086.01,2010.24 -944.62,1246.85 -3633.58,4535.23 -3618.99,5996.89 8.62,864.29 1232.32,1938.92 2826.25,346.69 1353.29,-1351.84 1080.82,-1070.6 2315.33,-2511.08 273.11,-318.66 486.61,-569.52 731.52,-876.98l713.8 -857.38c-39.15,556.35 -318.21,867.39 -237.85,2090.37 184.67,2810.04 2782.11,3392.05 3911.28,2602.92 432.06,-301.96 749.83,-757.96 933.42,-1427.61 168.6,-615.09 201.85,-1511.69 6.79,-2108.32 -181.06,-553.84 -509.81,-1101.89 -777.04,-1584.81 -146.41,-264.57 -292.49,-500.12 -439.96,-766.36 -82.84,-149.57 -124.52,-247.83 -198.64,-405.5 -26.26,-55.84 -68.57,-152.15 -101.28,-199.86 -127.85,-186.55 -18.66,-81.83 -156.74,-130.83 135.33,641.95 520,1250.6 827.22,2879.7 808.79,4288.91 -1800.76,4341.14 -2763.52,3063.5 -790.32,-1048.79 -1134.92,-3189.02 -354.89,-4406.39 99.83,-155.8 338.05,-386.67 359.78,-550.4 51.92,-391.13 -392.82,-233.95 -567.37,-109.94 -614.33,436.53 -339.11,626.43 -450.46,811.18l-1595.74 1718.08c-520.44,626.13 -1343.93,1356.2 -1855.43,1913.81 -343.82,374.8 -1147.31,1015.01 -1622.72,1240.19 -1437.48,680.86 -607.86,-1630.21 -378.89,-2185.87 366.69,-889.87 1285.93,-2208.66 1882.93,-2791.7 177.73,-173.57 249.83,-308.26 452.8,-502.16l1776.57 -1992.04c273.02,-334.28 720.98,-829.44 159.84,-1256.15 -953.39,-724.98 -1898.64,-267.71 -2835.84,137.22 -1663.6,718.77 -4780.55,2537.06 -5136.67,4260.75 -94.82,458.92 98.35,1266.09 443.64,1456.13z"/>
   <path class="fil0" d="M20012.44 7260.31c-218.43,756.14 -326.57,802.67 -714.59,1305.69 -127.57,165.39 -816.58,1076.03 -1076.5,754.21 -316.57,-391.94 895.18,-2035.91 1791.09,-2059.9zm87.96 -190.43c-121.65,-50.5 -179.93,-105.15 -372.26,-74.6 -125.29,19.91 -276.31,78.58 -372.08,126.31 -552.54,275.35 -1202.88,921.27 -1394.47,1548.98 -168.53,552.17 334.78,1471.33 1299.82,203.5l422.68 -593.13c-43.2,345.69 -137.48,803.96 69.44,1071.82 267.36,346.12 650.02,76.6 846.95,-109.32 340.81,-321.76 842.41,-1097.61 1057.2,-1506.05 111.55,87.84 112.45,186.29 340.99,197.63 185.45,9.2 293.82,-85.99 440.08,-117.47 -40.57,445.02 -891.38,978.58 -601.69,1547.84 230.48,452.89 743.64,16.92 995.47,-330.47 42.55,-58.68 73.73,-98.62 119.13,-161.32l144.16 -183.98c-37,269.89 -33.81,528.83 105.89,719.21 194.87,265.55 453.5,19.16 594.29,-98.59 180.57,-151.01 550.84,-592.54 713.13,-818.42l127.09 -140.46c-30.57,157.9 -442.04,1024.78 222.29,1057.66 128.94,6.39 267.86,-119.4 326.71,-179.16 187.56,-190.46 784.1,-993.14 871.38,-1243.1 -93.4,24 -83.09,52.24 -149.07,151.66 -50.28,75.74 -81.77,115.17 -130.29,181.89 -101.21,139.18 -164.17,233.12 -263.93,362.04 -104.24,134.72 -502.8,710.23 -668.9,481.51 -228.31,-314.38 610.11,-1238.61 559.09,-1489.87 -117.41,-47.14 -256.17,-58.46 -405.37,-35.15 -204.17,366.33 -828.99,1124.15 -1133.66,1427.59 -103.13,102.73 -334.62,385.86 -533.36,306.59 -196.42,-406.41 577.92,-1276.84 719.98,-1434.26 230.59,-255.53 792.82,-723.36 1219.89,-658.21 96.86,14.78 139.86,54.44 214.65,95.02 -119.31,-539.19 -620.94,-493.04 -990.25,-304.97 -818.99,417.08 -1095.26,1090.47 -1519.21,1639.57 -118.45,153.43 -594.18,862.97 -851.38,678.49 -276.27,-284.7 925.75,-1672.53 868.15,-1847.64 -232.91,-286.17 -409.73,-10.57 -556.51,128.07 -220.17,207.97 -459.79,226.52 -692.91,43.98 54.48,-171.07 52.11,-53.21 238.36,-247.79 77.92,-81.42 171.51,-143.27 232.81,-268.01 144.13,-293.32 -30.35,-495.03 -246.66,-589.8 -79.93,138.77 -94.27,603.87 -552.91,1386.36 -160.97,274.65 -1079.06,1815.35 -1468.31,1321.51 -309.44,-392.57 326.18,-1890.1 524.12,-2265.84 591.4,-1122.61 2135.72,-3774.09 3593.92,-3743.17 229.43,4.86 251.07,57.91 411.96,118.03 -200.24,-449.3 -1342.06,-109.94 -1669.07,48.06 -1019.42,492.58 -1821.02,1911.47 -2352.17,2904.65 -117.81,220.29 -239.17,515.53 -355.17,692.81z"/>
   <path class="fil0" d="M34845.96 7235.02c-303.87,-408.03 -644.1,145.8 -793.6,356.04l-222.42 312.77c-16.15,29.83 -15.74,19.45 -20.23,54.68 -24.86,195.25 86.1,-123.5 -60.89,298.54 -440.09,1263.55 493.15,1790.46 1218.09,736.97 -36.25,240.68 27.14,409.82 279.89,413.07 54.97,-62.7 229.77,-487.83 305.88,-628.8 104.82,-194.14 238.21,-408.69 357.82,-581.5 152.61,-220.49 626.96,-958.37 914.94,-905.05 171.61,556.15 -438.95,1478.79 -553.24,1942.84 414.41,472.14 391.09,7.65 959.79,-841.1 156.19,-233.13 284.41,-422.5 450.15,-644.41 177.39,-237.5 366.64,-493.9 652.73,-432.03 82.72,283.16 -175.37,622.43 -293.25,853.64 -225.27,441.82 -726.74,1346.55 -487.4,1802.09 99.38,189.13 510.77,361.52 699.5,-165.78 -152.99,105.54 -245.63,300.23 -496.69,273.75 -346.72,-711.74 1160.1,-2254.61 1095.95,-2717.66 -24.08,-173.86 -330.78,-441.82 -573.3,-363.39 -309.35,100.05 -1169.28,1436.54 -1319.57,1592.91l-53.37 49.17c101.68,-402.79 591.07,-1108.13 209.61,-1391.01 -350.62,-260.03 -601.71,34.11 -810.15,278.53 -227.97,267.3 -592.22,813.08 -768.99,1108.61 -72.77,-179.6 269.86,-731.96 368.76,-913.39 117.96,-216.35 506.78,-801.75 348.07,-863.32 -86.79,-33.68 -203.74,-2.3 -282.95,19.86 -121.44,33.99 -162.53,44.85 -214.15,131.13 -364.61,609.4 -154,462.73 -205.52,667.97l-318.33 716.6c-454.85,1000.76 -1360.15,1431.62 -1291.64,649.83 34.07,-388.72 171.7,-737.62 328.75,-1019.72 194.53,-349.43 329.99,-515.15 575.76,-791.84z"/>
   <path class="fil0" d="M29052.94 9037.64c-179.45,-139.32 -374.45,-161.72 -287.41,-763.45 93.4,-645.65 737.8,-1749.3 1067.83,-2212.74l1528.71 -1754.2c874.07,-727.08 1077.86,-156.52 157.17,875.6 -131.44,147.34 -271.14,316.65 -406.46,470.12 -147.05,166.78 -302.96,297.49 -446.33,460.27 -147.63,167.64 -279.01,282.9 -441,434.93l-663.12 681.55c-82.72,92.33 -140.5,157.28 -220.42,249.55 -117.31,135.42 -354.09,325.01 -379.77,539.65 112.71,-44.55 141.84,-116.85 264.85,-279.54l2524.57 -2448.85c202.06,-257.68 559.81,-688.6 593.2,-1066.72 19.13,-216.63 -84.03,-221.51 -189.4,-364.22 -162.69,-220.32 -261.94,-576.19 -664.06,-362.4 -996.78,529.95 -2835.88,3537.39 -2884.2,4861.26 -11.85,324.39 121.44,759.76 445.84,679.19z"/>
   <path class="fil0" d="M14717.91 8722.82c199.67,-150.29 62.17,-227.33 903.58,-641.41 306.45,-150.81 809.58,-388.25 807.76,-786.86 -1.31,-286.01 -209.03,-247.83 -452.94,-326.68 -284.16,-91.87 -313.13,-125.71 -597.06,57.44 -540.08,348.37 -1277.15,1306.03 -1118.36,2002.96 94.7,415.61 528.87,621.95 1017.1,460.32 645.01,-213.54 1136.01,-1361.01 1402.52,-1663.91 65.74,-74.71 22.1,-28.79 74.59,-67.68 131,352.19 684.1,512.95 519.45,1004.51 -67.68,202.06 -226.02,340.64 -497.12,315.5 -115.98,-10.75 -236.34,-59.51 -299.74,-108.74 -120.65,-93.65 -107.6,-143.8 -171.68,-233.61 -335.16,470.56 262,805.51 767.37,642.71 391.1,-125.99 731.18,-582.53 390.58,-1018.32 -233.13,-298.27 -870.39,-547.52 -452.18,-983.65 197.82,-206.29 524.45,-426.1 858.7,-427.37 202.43,-0.77 190.68,72.42 336.34,89.43 -82.27,-653.09 -701.54,-467.96 -1080.08,-204.68 -531.28,369.51 -301.99,646.71 -628.23,1156.22 -236.69,369.69 -467.01,707.12 -739.21,1010.64 -95.87,106.9 -303.71,314.86 -491.19,384.72 -226.55,84.42 -549.74,98.34 -685.74,-84.38 -355.28,-477.33 665.42,-1918.56 1253.59,-2162.12 343.5,-142.25 476.6,96.2 295.51,357.83 -231.81,334.87 -1367.27,805 -1413.56,1227.13z"/>
   <path class="fil0" d="M40536.42 8296.58c-55.63,214.86 -233.65,606.43 -164.45,860.42 37.11,136.29 322.64,432.93 654.53,90.3 96.99,-100.13 168.19,-164.36 255.16,-277.31 155.39,-201.82 577.43,-786.05 644.57,-984.21 -96.69,50.91 -421.11,555.57 -530.2,692.36 -115.87,145.31 -508.12,696.13 -673.21,499.39 -103.16,-226.07 117.9,-624.39 216.25,-800.58 308.19,-552.1 627.61,-808.86 -64.23,-743.99 -41.97,70.55 -1409.59,2058.74 -1677.86,1726.74 -223.43,-612.88 1529.95,-2579.02 2154.52,-1975.29 -1.44,-228.06 -266.54,-477.82 -547.94,-450.56 -803.6,77.86 -2077.75,1472.7 -1831.17,2247.48 308.55,969.49 1244.66,-506.53 1564.03,-884.75z"/>
   <path class="fil0" d="M31723.15 9407.09c412.95,0 1012.89,-10.05 1316.82,230.83 402.44,318.95 -87.05,763.37 -134.36,848.29 165.54,-38.38 516.05,-210.89 388.49,-568.45 -140.03,-392.51 374.18,-1232.82 -2108.35,-749.76 -596.07,115.98 -1251.41,260.24 -1871,290.47 -346.51,16.9 -1090.33,5.36 -1251.42,-351.18 -99.6,-220.45 56.61,-262.69 105.76,-416.48 -100.83,23.93 -134.08,50.91 -190.03,148.05 -137.51,238.72 -29.2,562.78 190.8,727.17 270.57,202.18 801.32,192.69 1156.47,153.59 808.26,-89 1552.56,-312.53 2396.82,-312.53z"/>
   <path class="fil0" d="M35362.01 6716.65c-176.66,-514.67 115.86,-477.06 453.68,-668.39 -44.4,-27.16 17.07,-11.96 -58.27,-18.59l-705.81 119.99c-125.28,103.53 -75.06,466.62 310.4,566.99z"/>
   <path class="fil0" d="M16456.34 6798.09c126.97,-414.52 413.2,-379.19 453.68,-668.38 -44.4,-27.16 17.07,-11.96 -58.27,-18.59l-607.7 204.84c-125.28,103.53 -173.17,381.76 212.29,482.13z"/>
  </g>
 </g>
</svg>
