<?xml version="1.0" encoding="UTF-8"?>
<!DOCTYPE svg PUBLIC "-//W3C//DTD SVG 1.1//EN" "http://www.w3.org/Graphics/SVG/1.1/DTD/svg11.dtd">
<!-- Creator: CorelDRAW 2021 (64 Bit) -->
<svg xmlns="http://www.w3.org/2000/svg" xml:space="preserve" width="1694px" height="1020px" version="1.1" style="shape-rendering:geometricPrecision; text-rendering:geometricPrecision; image-rendering:optimizeQuality; fill-rule:evenodd; clip-rule:evenodd"
viewBox="0 0 1504.12 905.5"
 xmlns:xlink="http://www.w3.org/1999/xlink"
 xmlns:xodm="http://www.corel.com/coreldraw/odm/2003">
 <defs>
  <style type="text/css">
   <![CDATA[
    .fil0 {fill:#00A9B6}
    .fil1 {fill:#FFB800}
    .fil2 {fill:white}
   ]]>
  </style>
 </defs>
 <g id="Camada_x0020_1">
  <metadata id="CorelCorpID_0Corel-Layer"/>
  <g id="_1942828958592">
   <path class="fil0" d="M728.6 99.49l574.03 0.06c-3.02,16.37 -29.4,98.23 -29.24,105.31 0.12,5.56 12.11,43.54 14.57,52.36 2.22,7.95 14.12,47.78 14.47,52.48l-1123.82 -0.28 26.26 -93.68c3.49,-12.36 3.44,-14.18 -2.94,-32.02 -18.13,1.89 -38.15,5.98 -56.35,8.85 -18.52,2.93 -36.63,5.13 -53.65,11.1 -32.64,11.46 -57.47,32.99 -72.47,56.96 -19.74,31.55 -24.52,63.56 -14.08,104.34l78.26 310.01c11.13,43.56 15.77,54.62 45.24,84.15 9.04,9.06 28.15,19.8 39.88,24.83 17.93,7.69 32.39,9.46 53.08,11.81 290.45,27.21 581.3,51.73 872.02,78.3 38.72,3.54 68.42,8.14 104.72,-5.78 70.06,-26.85 80.2,-76.41 101.17,-135.82 10.41,-29.5 20.49,-58.89 31.16,-88.15 10.61,-29.1 20.27,-58.38 30.94,-87.56 10.69,-29.24 20.95,-58.55 31.15,-88.18 10.05,-29.21 20.84,-58.2 30.9,-87.59 9.98,-29.17 20.43,-59.3 31.17,-87.7 2.63,-9.87 15.38,-44.14 19.67,-56.4 24,-68.63 48.78,-111.86 6.43,-176.23 -19.77,-30.06 -57.08,-52.35 -93.66,-58.55 -25.2,-4.28 -44.01,-1.36 -68.29,2.62l-525.35 84.1c-21.19,3.38 -44.79,6.22 -65.27,10.66z"/>
   <path class="fil1" d="M201.93 183.72c6.38,17.84 6.43,19.66 2.94,32.02l-26.26 93.68 1123.82 0.28c-0.35,-4.7 -12.25,-44.53 -14.47,-52.48 -2.46,-8.82 -14.45,-46.8 -14.57,-52.36 -0.16,-7.08 26.22,-88.94 29.24,-105.31l-574.03 -0.06 -550.11 0.09 23.44 84.14z"/>
   <path class="fil1" d="M221.84 795.77c4.8,15.83 15.9,27.65 24.71,35.64 9.91,9 23.6,16.92 39.98,21.39 20.88,5.7 88.13,6.98 114.22,8.43 77.56,4.31 155,7.97 232.77,11.65 155.44,7.36 310.72,15.65 465.7,23.29 38.63,1.9 77.4,4.23 115.79,5.82 34.41,1.42 82.69,8.21 113.47,-2.1 29.08,-9.73 53.16,-30.8 62.27,-59.6 4.41,-13.96 11.66,-88.52 13.96,-108.59l44.19 -383.84c1.97,-16.95 5.47,-37.97 6.17,-54.57 -10.74,28.4 -21.19,58.53 -31.17,87.7 -10.06,29.39 -20.85,58.38 -30.9,87.59 -10.2,29.63 -20.46,58.94 -31.15,88.18 -10.67,29.18 -20.33,58.46 -30.94,87.56 -10.67,29.26 -20.75,58.65 -31.16,88.15 -20.97,59.41 -31.11,108.97 -101.17,135.82 -36.3,13.92 -66,9.32 -104.72,5.78 -290.72,-26.57 -581.57,-51.09 -872.02,-78.3z"/>
   <path class="fil2" d="M226.52 421.29c-25.72,2.97 -49.29,11.46 -68.26,26.87 -33.37,27.09 -49.79,68.34 -44.69,112.03 7.89,67.69 68.01,116 145.42,107.96 19.16,-2 32.99,-6.56 48.62,-14.33 17.62,-8.76 23.68,-15.7 35.96,-27.91 8.65,-8.6 18.85,-27.24 23.15,-39.89 6.03,-17.7 8.18,-37.14 5.84,-56.95 -7.99,-67.61 -68.64,-116.73 -146.04,-107.78z"/>
   <path class="fil2" d="M617.24 427.07l-60.85 -0.17c-1.25,17.46 -0.14,39.16 -0.14,57.01 0,19.05 0,38.1 0,57.15 0,38 1.56,73.91 -41.21,73.99 -43.5,0.08 -41.72,-34.78 -41.72,-73.15 0,-19.05 0,-38.1 0,-57.15 0,-18.3 1.07,-40.02 -0.15,-57.9l-61.06 0.07c-1.5,27.1 -0.1,58.26 -0.1,85.56 0,73.22 -10.13,156.29 102.18,156.48 27.04,0.05 49.55,-4.5 68.49,-17.39 41.3,-28.11 34.67,-91.88 34.67,-138.25 0,-27.46 1.49,-59.33 -0.11,-86.25z"/>
   <polygon class="fil2" points="999.32,662.27 1132.88,662.34 1133.24,610.95 1060.73,610.57 1060.55,570.04 1129.06,569.96 1129.02,518.07 1060.78,518.09 1060.52,478.87 1133.13,478.72 1133.22,427.15 999.42,426.9 "/>
   <polygon class="fil2" points="644.32,478.71 694.35,478.74 694.37,662.24 755.38,662.34 755.89,478.72 805.75,478.74 805.93,426.93 644.45,426.9 "/>
   <polygon class="fil2" points="1155.06,478.8 1205.09,478.73 1205.1,662.22 1266.34,662.35 1266.29,478.85 1316.49,478.72 1316.61,427.01 1155.2,426.9 "/>
   <polygon class="fil2" points="833.22,662.37 967.7,662.35 967.67,610.56 894.54,610.56 894.42,426.84 833.37,426.9 "/>
   <path class="fil0" d="M235.48 480.37c-10.41,1.26 -16.34,3.04 -24.81,7.57 -6.99,3.73 -14.54,9.39 -18.32,14.45 -9.79,13.12 -17.78,27.68 -15.09,50.33 3.99,33.67 35.47,61.17 74.61,56.25 33.41,-4.19 61.82,-34.02 56.96,-72.79 -4.13,-32.86 -35.36,-60.39 -73.35,-55.81z"/>
   <path class="fil2" d="M427.29 281.78l21.85 0.01 14.38 -81.66c2.61,2.61 17.02,37.14 19.76,43.28 1.22,2.74 17.78,41.5 19.99,44.02l39.98 -87.08 13.74 81.39 21.42 0.05c-1.73,-13.57 -24.92,-145.14 -26.36,-147.38l-48.29 105.56c-8.78,-14.55 -42.14,-99.51 -47.61,-105.66l-28.86 147.47z"/>
   <path class="fil2" d="M882.55 209.9l-56.93 0.03 -0.04 19.82 33.7 -0.04c2.96,17.26 -35.19,57.84 -76.55,18.45 -24.14,-22.99 -15.32,-71.18 18.85,-83.59 16.81,-6.11 36.6,-3.77 49.68,8.31 3.34,3.09 7.43,8.37 10.69,10.78 3.82,-4.79 10.44,-8.37 14.19,-14.04 -2.67,-4.67 -10.57,-11.47 -15.64,-15.2 -34.7,-25.5 -86.28,-12.33 -105.55,27.35 -23.41,48.18 14.06,110.54 74.14,101.82 19.17,-2.78 31.75,-13.05 39.76,-23.2 11.07,-14.01 14.31,-28.66 13.7,-50.49z"/>
   <path class="fil2" d="M908.95 281.81l21.22 -0.02c5.29,-3.53 11.5,-27.16 16.81,-33.22l57.14 -0.13c2.61,1.71 13.83,28.71 15.07,33.14l23.12 0.24 -65.25 -145.95c-0.7,0.84 -0.02,-0.01 -1,1.45l-33.23 71.03c-5.46,12.02 -11.35,23.99 -16.82,36.12 -2.71,6.01 -5.56,12.34 -8.55,18.32 -2.39,4.78 -7.05,13.96 -8.51,19.02z"/>
   <polygon class="fil2" points="629.64,281.63 705.32,281.79 705.78,262.11 650.59,261.98 650.48,216.56 703.73,216.35 704.02,196.75 650.52,196.6 650.51,164.04 705.72,163.9 705.65,144.13 629.97,144.1 "/>
   <polygon class="fil1" points="955.43,228.4 996.4,228.64 976.72,183.09 "/>
  </g>
 </g>
</svg>
